<svg width="258" height="231" viewBox="0 0 258 231" fill="none" xmlns="http://www.w3.org/2000/svg">
<rect width="258" height="231" fill="white"/>
<line x1="16.4996" y1="0.90434" x2="18.0302" y2="200.898" stroke="black" stroke-width="25"/>
<g filter="url(#filter0_d_0_1)">
<line x1="4" y1="13.5" x2="74" y2="13.5" stroke="black" stroke-width="25"/>
</g>
<g filter="url(#filter1_d_0_1)">
<line x1="5" y1="210.5" x2="75" y2="210.5" stroke="black" stroke-width="25"/>
</g>
<path d="M239.5 0.904358L241.031 200.899" stroke="black" stroke-width="25"/>
<g filter="url(#filter2_d_0_1)">
<line x1="177" y1="13.5" x2="247" y2="13.5" stroke="black" stroke-width="25"/>
</g>
<g filter="url(#filter3_d_0_1)">
<line x1="184" y1="210.5" x2="254" y2="210.5" stroke="black" stroke-width="25"/>
</g>
<path d="M91.3636 161V108.636H99.4091V161H91.3636ZM95.4545 99.9091C93.8864 99.9091 92.5341 99.375 91.3977 98.3068C90.2841 97.2386 89.7273 95.9545 89.7273 94.4545C89.7273 92.9545 90.2841 91.6705 91.3977 90.6023C92.5341 89.5341 93.8864 89 95.4545 89C97.0227 89 98.3636 89.5341 99.4773 90.6023C100.614 91.6705 101.182 92.9545 101.182 94.4545C101.182 95.9545 100.614 97.2386 99.4773 98.3068C98.3636 99.375 97.0227 99.9091 95.4545 99.9091ZM122.19 129.5V161H114.145V108.636H121.918V116.818H122.599C123.827 114.159 125.69 112.023 128.19 110.409C130.69 108.773 133.918 107.955 137.872 107.955C141.418 107.955 144.52 108.682 147.179 110.136C149.838 111.568 151.906 113.75 153.384 116.682C154.861 119.591 155.599 123.273 155.599 127.727V161H147.554V128.273C147.554 124.159 146.486 120.955 144.349 118.659C142.213 116.341 139.281 115.182 135.554 115.182C132.986 115.182 130.69 115.739 128.668 116.852C126.668 117.966 125.088 119.591 123.929 121.727C122.77 123.864 122.19 126.455 122.19 129.5Z" fill="black"/>
<path d="M91.3636 161H86.3636V166H91.3636V161ZM91.3636 108.636V103.636H86.3636V108.636H91.3636ZM99.4091 108.636H104.409V103.636H99.4091V108.636ZM99.4091 161V166H104.409V161H99.4091ZM91.3977 98.3068L87.9366 101.915L87.9548 101.933L87.9732 101.95L91.3977 98.3068ZM91.3977 90.6023L87.9732 86.9591L87.9548 86.9764L87.9366 86.9939L91.3977 90.6023ZM99.4773 90.6023L96.0161 94.2107L96.0343 94.2281L96.0527 94.2454L99.4773 90.6023ZM99.4773 98.3068L96.0527 94.6637L96.0343 94.681L96.0161 94.6984L99.4773 98.3068ZM96.3636 161V108.636H86.3636V161H96.3636ZM91.3636 113.636H99.4091V103.636H91.3636V113.636ZM94.4091 108.636V161H104.409V108.636H94.4091ZM99.4091 156H91.3636V166H99.4091V156ZM95.4545 94.9091C95.1512 94.9091 95.0257 94.8549 94.8223 94.6637L87.9732 101.95C90.0425 103.895 92.6216 104.909 95.4545 104.909V94.9091ZM94.8589 94.6984C94.7919 94.6342 94.7579 94.5905 94.7435 94.5702C94.7298 94.5508 94.7289 94.546 94.7322 94.5534C94.7355 94.5611 94.7359 94.5651 94.7346 94.5585C94.7331 94.551 94.7273 94.5188 94.7273 94.4545H84.7273C84.7273 97.3602 85.8717 99.9346 87.9366 101.915L94.8589 94.6984ZM94.7273 94.4545C94.7273 94.3903 94.7331 94.3581 94.7346 94.3506C94.7359 94.344 94.7355 94.348 94.7322 94.3557C94.7289 94.3631 94.7298 94.3582 94.7435 94.3389C94.7579 94.3186 94.7919 94.2749 94.8589 94.2107L87.9366 86.9939C85.8717 88.9745 84.7273 91.5489 84.7273 94.4545H94.7273ZM94.8223 94.2454C95.0257 94.0542 95.1511 94 95.4545 94V84C92.6216 84 90.0425 85.014 87.9732 86.9591L94.8223 94.2454ZM95.4545 94C95.6601 94 95.7535 94.0326 95.7862 94.0457C95.8174 94.0581 95.892 94.0916 96.0161 94.2107L102.938 86.9939C100.877 85.0166 98.2894 84 95.4545 84V94ZM96.0527 94.2454C96.1236 94.312 96.1594 94.3573 96.1743 94.3778C96.1884 94.3972 96.1881 94.4006 96.1833 94.3897C96.1783 94.3784 96.1762 94.3695 96.1763 94.3698C96.1765 94.3711 96.1818 94.3967 96.1818 94.4545H106.182C106.182 91.5142 104.998 88.93 102.902 86.9591L96.0527 94.2454ZM96.1818 94.4545C96.1818 94.5123 96.1765 94.538 96.1763 94.5393C96.1762 94.5396 96.1783 94.5307 96.1833 94.5194C96.1881 94.5085 96.1884 94.5118 96.1743 94.5313C96.1594 94.5518 96.1236 94.5971 96.0527 94.6637L102.902 101.95C104.998 99.9791 106.182 97.3949 106.182 94.4545H96.1818ZM96.0161 94.6984C95.892 94.8175 95.8174 94.851 95.7862 94.8634C95.7535 94.8765 95.6601 94.9091 95.4545 94.9091V104.909C98.2894 104.909 100.877 103.892 102.938 101.915L96.0161 94.6984ZM122.19 161V166H127.19V161H122.19ZM114.145 161H109.145V166H114.145V161ZM114.145 108.636V103.636H109.145V108.636H114.145ZM121.918 108.636H126.918V103.636H121.918V108.636ZM121.918 116.818H116.918V121.818H121.918V116.818ZM122.599 116.818V121.818H125.799L127.139 118.913L122.599 116.818ZM128.19 110.409L130.902 114.61L130.915 114.601L130.929 114.593L128.19 110.409ZM147.179 110.136L144.779 114.523L144.794 114.531L144.808 114.539L147.179 110.136ZM153.384 116.682L148.918 118.932L148.922 118.939L148.925 118.946L153.384 116.682ZM155.599 161V166H160.599V161H155.599ZM147.554 161H142.554V166H147.554V161ZM144.349 118.659L140.673 122.047L140.681 122.057L140.689 122.066L144.349 118.659ZM128.668 116.852L126.256 112.472L126.246 112.478L126.235 112.484L128.668 116.852ZM123.929 121.727L119.534 119.343L119.534 119.343L123.929 121.727ZM117.19 129.5V161H127.19V129.5H117.19ZM122.19 156H114.145V166H122.19V156ZM119.145 161V108.636H109.145V161H119.145ZM114.145 113.636H121.918V103.636H114.145V113.636ZM116.918 108.636V116.818H126.918V108.636H116.918ZM121.918 121.818H122.599V111.818H121.918V121.818ZM127.139 118.913C127.962 117.13 129.185 115.718 130.902 114.61L125.479 106.208C122.196 108.327 119.691 111.188 118.06 114.723L127.139 118.913ZM130.929 114.593C132.39 113.636 134.582 112.955 137.872 112.955V102.955C133.254 102.955 128.991 103.909 125.452 106.226L130.929 114.593ZM137.872 112.955C140.722 112.955 142.972 113.534 144.779 114.523L149.578 105.75C146.068 103.829 142.113 102.955 137.872 102.955V112.955ZM144.808 114.539C146.486 115.442 147.86 116.831 148.918 118.932L157.849 114.432C155.952 110.669 153.19 107.694 149.549 105.734L144.808 114.539ZM148.925 118.946C149.941 120.945 150.599 123.787 150.599 127.727H160.599C160.599 122.759 159.781 118.237 157.842 114.418L148.925 118.946ZM150.599 127.727V161H160.599V127.727H150.599ZM155.599 156H147.554V166H155.599V156ZM152.554 161V128.273H142.554V161H152.554ZM152.554 128.273C152.554 123.3 151.248 118.733 148.01 115.253L140.689 122.066C141.723 123.177 142.554 125.018 142.554 128.273H152.554ZM148.026 115.271C144.77 111.738 140.401 110.182 135.554 110.182V120.182C138.162 120.182 139.656 120.944 140.673 122.047L148.026 115.271ZM135.554 110.182C132.239 110.182 129.098 110.908 126.256 112.472L131.079 121.232C132.283 120.57 133.733 120.182 135.554 120.182V110.182ZM126.235 112.484C123.354 114.088 121.117 116.426 119.534 119.343L128.324 124.112C129.06 122.756 129.981 121.844 131.1 121.221L126.235 112.484ZM119.534 119.343C117.89 122.374 117.19 125.829 117.19 129.5H127.19C127.19 127.08 127.65 125.353 128.324 124.112L119.534 119.343Z" fill="black"/>
<defs>
<filter id="filter0_d_0_1" x="0" y="1" width="78" height="33" filterUnits="userSpaceOnUse" color-interpolation-filters="sRGB">
<feFlood flood-opacity="0" result="BackgroundImageFix"/>
<feColorMatrix in="SourceAlpha" type="matrix" values="0 0 0 0 0 0 0 0 0 0 0 0 0 0 0 0 0 0 127 0" result="hardAlpha"/>
<feOffset dy="4"/>
<feGaussianBlur stdDeviation="2"/>
<feComposite in2="hardAlpha" operator="out"/>
<feColorMatrix type="matrix" values="0 0 0 0 0 0 0 0 0 0 0 0 0 0 0 0 0 0 0.25 0"/>
<feBlend mode="normal" in2="BackgroundImageFix" result="effect1_dropShadow_0_1"/>
<feBlend mode="normal" in="SourceGraphic" in2="effect1_dropShadow_0_1" result="shape"/>
</filter>
<filter id="filter1_d_0_1" x="1" y="198" width="78" height="33" filterUnits="userSpaceOnUse" color-interpolation-filters="sRGB">
<feFlood flood-opacity="0" result="BackgroundImageFix"/>
<feColorMatrix in="SourceAlpha" type="matrix" values="0 0 0 0 0 0 0 0 0 0 0 0 0 0 0 0 0 0 127 0" result="hardAlpha"/>
<feOffset dy="4"/>
<feGaussianBlur stdDeviation="2"/>
<feComposite in2="hardAlpha" operator="out"/>
<feColorMatrix type="matrix" values="0 0 0 0 0 0 0 0 0 0 0 0 0 0 0 0 0 0 0.25 0"/>
<feBlend mode="normal" in2="BackgroundImageFix" result="effect1_dropShadow_0_1"/>
<feBlend mode="normal" in="SourceGraphic" in2="effect1_dropShadow_0_1" result="shape"/>
</filter>
<filter id="filter2_d_0_1" x="173" y="1" width="78" height="33" filterUnits="userSpaceOnUse" color-interpolation-filters="sRGB">
<feFlood flood-opacity="0" result="BackgroundImageFix"/>
<feColorMatrix in="SourceAlpha" type="matrix" values="0 0 0 0 0 0 0 0 0 0 0 0 0 0 0 0 0 0 127 0" result="hardAlpha"/>
<feOffset dy="4"/>
<feGaussianBlur stdDeviation="2"/>
<feComposite in2="hardAlpha" operator="out"/>
<feColorMatrix type="matrix" values="0 0 0 0 0 0 0 0 0 0 0 0 0 0 0 0 0 0 0.25 0"/>
<feBlend mode="normal" in2="BackgroundImageFix" result="effect1_dropShadow_0_1"/>
<feBlend mode="normal" in="SourceGraphic" in2="effect1_dropShadow_0_1" result="shape"/>
</filter>
<filter id="filter3_d_0_1" x="180" y="198" width="78" height="33" filterUnits="userSpaceOnUse" color-interpolation-filters="sRGB">
<feFlood flood-opacity="0" result="BackgroundImageFix"/>
<feColorMatrix in="SourceAlpha" type="matrix" values="0 0 0 0 0 0 0 0 0 0 0 0 0 0 0 0 0 0 127 0" result="hardAlpha"/>
<feOffset dy="4"/>
<feGaussianBlur stdDeviation="2"/>
<feComposite in2="hardAlpha" operator="out"/>
<feColorMatrix type="matrix" values="0 0 0 0 0 0 0 0 0 0 0 0 0 0 0 0 0 0 0.25 0"/>
<feBlend mode="normal" in2="BackgroundImageFix" result="effect1_dropShadow_0_1"/>
<feBlend mode="normal" in="SourceGraphic" in2="effect1_dropShadow_0_1" result="shape"/>
</filter>
</defs>
</svg>
